<svg width="34" height="35" viewBox="0 0 34 35" fill="none" xmlns="http://www.w3.org/2000/svg">
<path d="M5.13024 27.9839C4.79669 28.8315 5.06288 29.7101 5.1313 30.8045C5.16783 31.0391 5.20587 31.3032 5.21105 31.6318C5.21287 31.7975 5.20744 31.9784 5.17599 32.205C5.13508 32.4395 5.11465 32.6842 4.87358 33.1809C4.82371 33.2771 4.76808 33.376 4.67811 33.5027C4.53755 33.6735 4.4908 33.8174 3.97919 34.1425C3.85498 34.213 3.7279 34.2742 3.54297 34.3314C3.34354 34.3924 3.11265 34.4272 2.88065 34.4199C2.39374 34.4032 2.03139 34.2333 1.77451 34.0589C1.49936 33.8622 1.42845 33.7647 1.31836 33.6356C1.21688 33.5078 1.16907 33.4271 1.12511 33.3516C0.953913 33.0393 0.930515 32.9115 0.890864 32.7839C0.853639 32.6496 0.837807 32.563 0.820487 32.4653C0.792324 32.2927 0.779815 32.147 0.772979 32.0163C0.760053 31.7551 0.769354 31.545 0.784103 31.3481C0.81497 30.9576 0.872753 30.6372 0.921934 30.3113C1.02072 29.6623 1.0929 28.9884 0.932571 27.8504C0.915987 27.7349 0.900483 27.6172 0.886357 27.505C0.614345 25.2502 0.962604 23.0837 0.70494 22.0994C0.438836 21.0576 1.21068 20.9446 1.04546 19.4707C0.884596 17.9973 1.00363 17.0977 1.2892 15.8225C1.53193 14.7455 1.79354 11.8538 1.85182 10.0275C1.85245 10.0192 1.85758 9.99464 1.8589 9.98637C1.91013 9.63016 1.9506 9.31697 1.96465 9.06744C2.03268 7.73793 2.94993 6.48649 3.59504 5.70065C3.60054 5.68897 3.62264 5.65834 3.63026 5.64792C3.76488 5.52751 3.89604 5.43884 4.01362 5.36171C4.29481 5.18108 4.53065 5.09985 4.71628 5.04467C4.79511 5.02204 4.85257 5.04459 4.87947 5.08606C4.87948 5.08608 4.8795 5.08611 4.87952 5.08614C4.91297 5.13785 4.8986 5.21906 4.8192 5.28005C4.59546 5.4558 4.28616 5.70188 4.10959 6.03893L4.13978 5.99374C4.04897 6.27622 3.96851 6.59249 3.91086 6.93592C3.70419 8.41134 3.26022 8.50033 2.97641 10.2264L2.9853 10.1748C2.98163 10.2704 2.97974 10.4055 2.98186 10.5464C3.04248 12.6822 3.42827 14.006 3.08346 16.5309C2.75997 19.0637 3.88673 19.6541 3.2882 23.2159C2.96862 25.2177 3.25029 26.2156 3.63009 27.2672C3.93804 28.142 4.26135 29.1095 4.48567 30.5729C4.53188 30.8587 4.57773 31.1519 4.6227 31.3788C4.64051 31.4796 4.67961 31.6082 4.65064 31.5238C4.63683 31.4917 4.62754 31.4551 4.55127 31.3233C4.5155 31.2652 4.45926 31.1698 4.32787 31.0278C4.22103 30.9156 3.95023 30.6442 3.46421 30.5044C2.96196 30.3318 2.24528 30.5119 2.01652 30.6681C1.8675 30.7503 1.75488 30.8383 1.67181 30.913C1.60901 30.9697 1.55992 31.0218 1.51988 31.0681C1.35498 31.2687 1.35342 31.305 1.32172 31.36C1.24219 31.5378 1.28361 31.4836 1.29951 31.4134C1.32145 31.3366 1.34824 31.2154 1.37578 31.08C1.43169 30.8064 1.49249 30.473 1.58234 30.1059C1.97069 28.6637 2.20234 26.6617 3.19705 25.0598C3.53969 24.5245 3.83194 24.0309 4.04951 23.6144C4.50452 22.744 5.04243 21.7047 5.75942 20.6171C6.67565 19.2321 7.80737 18.0074 8.80762 16.7965C8.9228 16.6571 9.03464 16.5142 9.14223 16.3681C10.1508 14.9786 11.2571 13.215 12.6951 11.7006C13.5977 10.7391 14.4965 9.72827 15.5318 8.82249C16.2635 8.1889 17.1311 7.46069 18.1984 6.86847C19.7169 6.06106 21.3835 4.67228 22.9928 4.00089C23.6729 3.70975 24.2765 3.48159 24.7553 3.31102C26.4457 2.71593 27.1044 2.50186 28.2141 1.84299C28.5042 1.67064 28.8307 1.49073 29.2181 1.29191C30.3378 0.723532 32.0101 0.210966 33.5156 0.288182C33.8943 0.315231 34.0363 0.424387 33.9933 0.508829C33.9543 0.595733 33.7563 0.677778 33.4244 0.787317C32.4596 1.11564 31.6149 1.29707 31.1998 1.72168C30.4099 2.56404 30.072 2.90071 28.9329 3.16857C28.8955 3.17975 28.8574 3.19077 28.8185 3.20163C27.4271 3.58143 27.1457 4.493 26.3875 4.76516C25.8059 4.9779 25.5471 4.76263 23.8884 5.67223C23.4629 5.91165 22.9496 6.2803 22.3132 6.85593C21.3882 7.69455 20.5618 8.51131 19.6777 9.15495C18.357 10.21 17.5361 11.3137 16.8653 12.0847C16.4623 12.5656 15.8053 13.2233 15.023 13.9554C14.0082 14.88 12.9577 16.0951 12.2037 17.3366C12.0576 17.5739 11.8902 17.8393 11.7036 18.1276C10.782 19.564 9.33044 21.1065 8.43484 22.455C7.75389 23.4772 7.22732 24.498 6.93084 25.1981C6.62318 25.9312 6.36613 26.3599 6.1041 26.6791C5.8299 26.961 5.47914 27.1345 5.13024 27.9839Z" fill="#59BB83"/>
<path d="M9.60467 24.7447C10.0509 24.9324 10.2013 23.7221 10.7172 23.8238C10.787 23.8381 10.8498 23.8623 10.9068 23.8928L10.6226 23.95C10.9463 24.0979 11.1859 24.4932 11.5483 24.2405C11.9615 23.9482 12.5919 24.1527 12.7092 23.8278C12.823 23.5039 13.1428 24.2103 13.3826 23.9224C13.6214 23.6344 13.8478 23.6471 14.2182 23.7627C14.4813 23.8448 15.0211 23.7886 15.3836 23.6064C15.3893 23.6025 15.4099 23.5982 15.4158 23.5947C15.5667 23.5315 15.6977 23.4427 15.7713 23.3281C16.0384 22.9264 16.5643 23.3671 16.8031 23.455C16.8806 23.4815 16.9451 23.5257 16.9961 23.5745C17.018 23.5951 17.0344 23.6432 17.0424 23.692C17.0424 23.692 17.0424 23.6921 17.0424 23.6921C17.0523 23.7529 17.0492 23.8147 17.028 23.8261C16.9257 23.8813 16.7766 24.0082 16.6386 24.2651C16.3923 24.7462 16.2601 24.3005 15.8658 24.648C15.8371 24.6735 15.8094 24.7 15.7821 24.7271L15.8313 24.7092C15.5174 25.0775 15.3893 25.5114 14.7902 25.4886C14.143 25.4633 14.4709 26.5875 13.4252 26.3042C12.3857 26.0061 12.7448 27.1723 11.8851 27.6099C11.8198 27.6421 11.7507 27.67 11.6794 27.6936C11.6175 27.6965 11.4409 27.7605 11.3793 27.7539C10.6352 27.8794 9.76691 27.4634 9.40322 27.6221C9.01262 27.7858 8.59735 28.0807 8.09144 28.2019C7.93059 28.241 7.79155 28.342 7.67033 28.4663C7.34802 28.7839 7.11349 29.1924 6.66864 29.4058C6.01755 29.7044 5.13419 30.3751 4.67159 30.6747C4.20724 30.9711 4.09651 31.0542 3.98509 31.5454C3.9216 31.8281 3.66742 32.1223 3.23844 32.2606C3.02202 32.3313 2.84754 32.1948 2.83521 31.9983C2.81681 31.7119 3.00341 31.5852 2.82611 31.3428C2.47303 30.8567 2.34618 30.6549 2.7832 30.5321C3.2192 30.4126 2.67756 29.9143 2.84983 29.79C3.0263 29.6677 3.36253 29.8977 3.64064 28.8929C3.9384 27.8796 4.28477 27.3651 4.50596 27.0095C4.68872 26.7163 5.3051 26.429 5.77311 26.086C5.89527 25.9945 6.01012 25.9006 6.11179 25.7987C6.64283 25.2209 8.05898 24.7765 8.53684 24.4504C9.02898 24.0969 9.14479 24.5647 9.60467 24.7447Z" fill="#59BB83"/>
</svg>
